<svg aria-roledescription="flowchart-v2" role="graphics-document document" viewBox="-8 -8 672.5859375 1575.53125" style="max-width: 672.586px; background-color: transparent;" xmlns:xlink="http://www.w3.org/1999/xlink" xmlns="http://www.w3.org/2000/svg" width="100%" id="my-svg"><style>#my-svg{font-family:"trebuchet ms",verdana,arial,sans-serif;font-size:16px;fill:#000000;}#my-svg .error-icon{fill:#552222;}#my-svg .error-text{fill:#552222;stroke:#552222;}#my-svg .edge-thickness-normal{stroke-width:2px;}#my-svg .edge-thickness-thick{stroke-width:3.5px;}#my-svg .edge-pattern-solid{stroke-dasharray:0;}#my-svg .edge-pattern-dashed{stroke-dasharray:3;}#my-svg .edge-pattern-dotted{stroke-dasharray:2;}#my-svg .marker{fill:#000000;stroke:#000000;}#my-svg .marker.cross{stroke:#000000;}#my-svg svg{font-family:"trebuchet ms",verdana,arial,sans-serif;font-size:16px;}#my-svg .label{font-family:"trebuchet ms",verdana,arial,sans-serif;color:#000000;}#my-svg .cluster-label text{fill:#333;}#my-svg .cluster-label span,#my-svg p{color:#333;}#my-svg .label text,#my-svg span,#my-svg p{fill:#000000;color:#000000;}#my-svg .node rect,#my-svg .node circle,#my-svg .node ellipse,#my-svg .node polygon,#my-svg .node path{fill:#cde498;stroke:#13540c;stroke-width:1px;}#my-svg .flowchart-label text{text-anchor:middle;}#my-svg .node .katex path{fill:#000;stroke:#000;stroke-width:1px;}#my-svg .node .label{text-align:center;}#my-svg .node.clickable{cursor:pointer;}#my-svg .arrowheadPath{fill:green;}#my-svg .edgePath .path{stroke:#000000;stroke-width:2.0px;}#my-svg .flowchart-link{stroke:#000000;fill:none;}#my-svg .edgeLabel{background-color:#e8e8e8;text-align:center;}#my-svg .edgeLabel rect{opacity:0.5;background-color:#e8e8e8;fill:#e8e8e8;}#my-svg .labelBkg{background-color:rgba(232, 232, 232, 0.5);}#my-svg .cluster rect{fill:#cdffb2;stroke:#6eaa49;stroke-width:1px;}#my-svg .cluster text{fill:#333;}#my-svg .cluster span,#my-svg p{color:#333;}#my-svg div.mermaidTooltip{position:absolute;text-align:center;max-width:200px;padding:2px;font-family:"trebuchet ms",verdana,arial,sans-serif;font-size:12px;background:hsl(78.1578947368, 58.4615384615%, 84.5098039216%);border:1px solid #6eaa49;border-radius:2px;pointer-events:none;z-index:100;}#my-svg .flowchartTitleText{text-anchor:middle;font-size:18px;fill:#000000;}#my-svg :root{--mermaid-font-family:"trebuchet ms",verdana,arial,sans-serif;}</style><g><marker orient="auto" markerHeight="12" markerWidth="12" markerUnits="userSpaceOnUse" refY="5" refX="6" viewBox="0 0 10 10" class="marker flowchart" id="my-svg_flowchart-pointEnd"><path style="stroke-width: 1; stroke-dasharray: 1, 0;" class="arrowMarkerPath" d="M 0 0 L 10 5 L 0 10 z"/></marker><marker orient="auto" markerHeight="12" markerWidth="12" markerUnits="userSpaceOnUse" refY="5" refX="4.5" viewBox="0 0 10 10" class="marker flowchart" id="my-svg_flowchart-pointStart"><path style="stroke-width: 1; stroke-dasharray: 1, 0;" class="arrowMarkerPath" d="M 0 5 L 10 10 L 10 0 z"/></marker><marker orient="auto" markerHeight="11" markerWidth="11" markerUnits="userSpaceOnUse" refY="5" refX="11" viewBox="0 0 10 10" class="marker flowchart" id="my-svg_flowchart-circleEnd"><circle style="stroke-width: 1; stroke-dasharray: 1, 0;" class="arrowMarkerPath" r="5" cy="5" cx="5"/></marker><marker orient="auto" markerHeight="11" markerWidth="11" markerUnits="userSpaceOnUse" refY="5" refX="-1" viewBox="0 0 10 10" class="marker flowchart" id="my-svg_flowchart-circleStart"><circle style="stroke-width: 1; stroke-dasharray: 1, 0;" class="arrowMarkerPath" r="5" cy="5" cx="5"/></marker><marker orient="auto" markerHeight="11" markerWidth="11" markerUnits="userSpaceOnUse" refY="5.2" refX="12" viewBox="0 0 11 11" class="marker cross flowchart" id="my-svg_flowchart-crossEnd"><path style="stroke-width: 2; stroke-dasharray: 1, 0;" class="arrowMarkerPath" d="M 1,1 l 9,9 M 10,1 l -9,9"/></marker><marker orient="auto" markerHeight="11" markerWidth="11" markerUnits="userSpaceOnUse" refY="5.2" refX="-1" viewBox="0 0 11 11" class="marker cross flowchart" id="my-svg_flowchart-crossStart"><path style="stroke-width: 2; stroke-dasharray: 1, 0;" class="arrowMarkerPath" d="M 1,1 l 9,9 M 10,1 l -9,9"/></marker><g class="root"><g class="clusters"/><g class="edgePaths"><path marker-end="url(#my-svg_flowchart-pointEnd)" style="fill:none;" class="edge-thickness-normal edge-pattern-solid flowchart-link LS-A LE-B" id="L-A-B-0" d="M385.98,34L385.98,38.167C385.98,42.333,385.98,50.667,386.046,58.2C386.113,65.734,386.245,72.467,386.311,75.834L386.377,79.201"/><path marker-end="url(#my-svg_flowchart-pointEnd)" style="fill:none;" class="edge-thickness-normal edge-pattern-solid flowchart-link LS-B LE-C" id="L-B-C-0" d="M443.536,255.554L458.726,270.73C473.917,285.906,504.298,316.258,519.489,336.3C534.68,356.343,534.68,366.076,534.68,370.943L534.68,375.809"/><path marker-end="url(#my-svg_flowchart-pointEnd)" style="fill:none;" class="edge-thickness-normal edge-pattern-solid flowchart-link LS-B LE-D" id="L-B-D-0" d="M329.425,255.554L314.068,270.73C298.711,285.906,267.996,316.258,252.639,341.6C237.281,366.943,237.281,387.276,237.281,406.026C237.281,424.776,237.281,441.943,237.281,458.559C237.281,475.176,237.281,491.243,237.281,499.276L237.281,507.309"/><path marker-end="url(#my-svg_flowchart-pointEnd)" style="fill:none;" class="edge-thickness-normal edge-pattern-solid flowchart-link LS-C LE-E" id="L-C-E-0" d="M534.68,434.109L534.68,438.276C534.68,442.443,534.68,450.776,534.68,458.226C534.68,465.676,534.68,472.243,534.68,475.526L534.68,478.809"/><path marker-end="url(#my-svg_flowchart-pointEnd)" style="fill:none;" class="edge-thickness-normal edge-pattern-solid flowchart-link LS-E LE-F" id="L-E-F-0" d="M534.68,575.109L534.68,579.276C534.68,583.443,534.68,591.776,519.642,608.61C504.605,625.445,474.53,650.78,459.492,663.448L444.455,676.116"/><path marker-end="url(#my-svg_flowchart-pointEnd)" style="fill:none;" class="edge-thickness-normal edge-pattern-solid flowchart-link LS-F LE-G" id="L-F-G-0" d="M427.619,782.112L436.526,794.635C445.433,807.158,463.248,832.204,472.155,849.594C481.063,866.983,481.063,876.717,481.063,881.583L481.063,886.45"/><path marker-end="url(#my-svg_flowchart-pointEnd)" style="fill:none;" class="edge-thickness-normal edge-pattern-solid flowchart-link LS-F LE-H" id="L-F-H-0" d="M330.061,766.83L309.813,781.9C289.566,796.97,249.072,827.11,228.825,847.047C208.578,866.983,208.578,876.717,208.578,881.583L208.578,886.45"/><path marker-end="url(#my-svg_flowchart-pointEnd)" style="fill:none;" class="edge-thickness-normal edge-pattern-solid flowchart-link LS-D LE-F" id="L-D-F-0" d="M237.281,546.609L237.281,555.526C237.281,564.443,237.281,582.276,252.482,603.864C267.684,625.452,298.086,650.794,313.287,663.466L328.488,676.137"/><path marker-end="url(#my-svg_flowchart-pointEnd)" style="fill:none;" class="edge-thickness-normal edge-pattern-solid flowchart-link LS-G LE-I" id="L-G-I-0" d="M481.063,925.75L481.063,929.917C481.063,934.083,481.063,942.417,474.146,950.329C467.23,958.242,453.398,965.734,446.482,969.48L439.566,973.226"/><path marker-end="url(#my-svg_flowchart-pointEnd)" style="fill:none;" class="edge-thickness-normal edge-pattern-solid flowchart-link LS-H LE-I" id="L-H-I-0" d="M208.578,925.75L208.578,929.917C208.578,934.083,208.578,942.417,222.083,950.504C235.587,958.591,262.597,966.432,276.101,970.352L289.606,974.272"/><path marker-end="url(#my-svg_flowchart-pointEnd)" style="fill:none;" class="edge-thickness-normal edge-pattern-solid flowchart-link LS-I LE-J" id="L-I-J-0" d="M385.98,1028.75L385.98,1032.917C385.98,1037.083,385.98,1045.417,385.98,1052.867C385.98,1060.317,385.98,1066.883,385.98,1070.167L385.98,1073.45"/><path marker-end="url(#my-svg_flowchart-pointEnd)" style="fill:none;" class="edge-thickness-normal edge-pattern-solid flowchart-link LS-J LE-K" id="L-J-K-0" d="M385.98,1131.75L385.98,1135.917C385.98,1140.083,385.98,1148.417,386.046,1155.95C386.113,1163.484,386.245,1170.217,386.311,1173.584L386.377,1176.951"/><path marker-end="url(#my-svg_flowchart-pointEnd)" style="fill:none;" class="edge-thickness-normal edge-pattern-solid flowchart-link LS-K LE-L" id="L-K-L-0" d="M313.873,1365.424L290.344,1383.191C266.815,1400.959,219.757,1436.495,188.985,1459.496C158.212,1482.497,143.725,1492.962,136.481,1498.195L129.238,1503.428"/><path marker-end="url(#my-svg_flowchart-pointEnd)" style="fill:none;" class="edge-thickness-normal edge-pattern-solid flowchart-link LS-K LE-M" id="L-K-M-0" d="M400.731,1423.781L401.666,1431.823C402.602,1439.864,404.473,1455.948,405.408,1470.44C406.344,1484.931,406.344,1497.831,406.344,1504.281L406.344,1510.731"/><path marker-end="url(#my-svg_flowchart-pointEnd)" style="fill:none;" class="edge-thickness-normal edge-pattern-solid flowchart-link LS-L LE-C" id="L-L-C-0" d="M81.453,1506.531L79.976,1500.781C78.5,1495.031,75.547,1483.531,74.07,1450.716C72.594,1417.901,72.594,1363.771,72.594,1311.224C72.594,1258.677,72.594,1207.714,72.594,1173.648C72.594,1139.583,72.594,1122.417,72.594,1105.25C72.594,1088.083,72.594,1070.917,72.594,1053.75C72.594,1036.583,72.594,1019.417,72.594,1002.25C72.594,985.083,72.594,967.917,72.594,952.333C72.594,936.75,72.594,922.75,72.594,907.167C72.594,891.583,72.594,874.417,72.594,843.613C72.594,812.81,72.594,768.37,72.594,725.513C72.594,682.656,72.594,641.383,72.594,608.996C72.594,576.609,72.594,553.109,72.594,529.609C72.594,506.109,72.594,482.609,130.587,464.396C188.58,446.183,304.567,433.256,362.56,426.792L420.553,420.329"/></g><g class="edgeLabels"><g class="edgeLabel"><g transform="translate(0, 0)" class="label"><foreignObject height="0" width="0"><div style="display: inline-block; white-space: nowrap;" xmlns="http://www.w3.org/1999/xhtml"><span class="edgeLabel"></span></div></foreignObject></g></g><g transform="translate(534.6796875, 346.609375)" class="edgeLabel"><g transform="translate(-9.3984375, -9.5)" class="label"><foreignObject height="19" width="18.796875"><div style="display: inline-block; white-space: nowrap;" xmlns="http://www.w3.org/1999/xhtml"><span class="edgeLabel">No</span></div></foreignObject></g></g><g transform="translate(237.28125, 407.609375)" class="edgeLabel"><g transform="translate(-11.328125, -9.5)" class="label"><foreignObject height="19" width="22.65625"><div style="display: inline-block; white-space: nowrap;" xmlns="http://www.w3.org/1999/xhtml"><span class="edgeLabel">Yes</span></div></foreignObject></g></g><g class="edgeLabel"><g transform="translate(0, 0)" class="label"><foreignObject height="0" width="0"><div style="display: inline-block; white-space: nowrap;" xmlns="http://www.w3.org/1999/xhtml"><span class="edgeLabel"></span></div></foreignObject></g></g><g class="edgeLabel"><g transform="translate(0, 0)" class="label"><foreignObject height="0" width="0"><div style="display: inline-block; white-space: nowrap;" xmlns="http://www.w3.org/1999/xhtml"><span class="edgeLabel"></span></div></foreignObject></g></g><g transform="translate(481.0625, 857.25)" class="edgeLabel"><g transform="translate(-47.8046875, -9.5)" class="label"><foreignObject height="19" width="95.609375"><div style="display: inline-block; white-space: nowrap;" xmlns="http://www.w3.org/1999/xhtml"><span class="edgeLabel">Prefer secure</span></div></foreignObject></g></g><g transform="translate(208.578125, 857.25)" class="edgeLabel"><g transform="translate(-56.9609375, -9.5)" class="label"><foreignObject height="19" width="113.921875"><div style="display: inline-block; white-space: nowrap;" xmlns="http://www.w3.org/1999/xhtml"><span class="edgeLabel">Integration only</span></div></foreignObject></g></g><g class="edgeLabel"><g transform="translate(0, 0)" class="label"><foreignObject height="0" width="0"><div style="display: inline-block; white-space: nowrap;" xmlns="http://www.w3.org/1999/xhtml"><span class="edgeLabel"></span></div></foreignObject></g></g><g class="edgeLabel"><g transform="translate(0, 0)" class="label"><foreignObject height="0" width="0"><div style="display: inline-block; white-space: nowrap;" xmlns="http://www.w3.org/1999/xhtml"><span class="edgeLabel"></span></div></foreignObject></g></g><g class="edgeLabel"><g transform="translate(0, 0)" class="label"><foreignObject height="0" width="0"><div style="display: inline-block; white-space: nowrap;" xmlns="http://www.w3.org/1999/xhtml"><span class="edgeLabel"></span></div></foreignObject></g></g><g class="edgeLabel"><g transform="translate(0, 0)" class="label"><foreignObject height="0" width="0"><div style="display: inline-block; white-space: nowrap;" xmlns="http://www.w3.org/1999/xhtml"><span class="edgeLabel"></span></div></foreignObject></g></g><g class="edgeLabel"><g transform="translate(0, 0)" class="label"><foreignObject height="0" width="0"><div style="display: inline-block; white-space: nowrap;" xmlns="http://www.w3.org/1999/xhtml"><span class="edgeLabel"></span></div></foreignObject></g></g><g transform="translate(172.69921875, 1472.03125)" class="edgeLabel"><g transform="translate(-11.328125, -9.5)" class="label"><foreignObject height="19" width="22.65625"><div style="display: inline-block; white-space: nowrap;" xmlns="http://www.w3.org/1999/xhtml"><span class="edgeLabel">Yes</span></div></foreignObject></g></g><g transform="translate(406.34375, 1472.03125)" class="edgeLabel"><g transform="translate(-9.3984375, -9.5)" class="label"><foreignObject height="19" width="18.796875"><div style="display: inline-block; white-space: nowrap;" xmlns="http://www.w3.org/1999/xhtml"><span class="edgeLabel">No</span></div></foreignObject></g></g><g class="edgeLabel"><g transform="translate(0, 0)" class="label"><foreignObject height="0" width="0"><div style="display: inline-block; white-space: nowrap;" xmlns="http://www.w3.org/1999/xhtml"><span class="edgeLabel"></span></div></foreignObject></g></g></g><g class="nodes"><g transform="translate(385.98046875, 17)" data-id="A" data-node="true" id="flowchart-A-0" class="node default default flowchart-label"><rect height="34" width="100.609375" y="-17" x="-50.3046875" ry="0" rx="0" style="" class="basic label-container"/><g transform="translate(-42.8046875, -9.5)" style="" class="label"><rect/><foreignObject height="19" width="85.609375"><div style="display: inline-block; white-space: nowrap;" xmlns="http://www.w3.org/1999/xhtml"><span class="nodeLabel">Start / Boot</span></div></foreignObject></g></g><g transform="translate(385.98046875, 198.0546875)" data-id="B" data-node="true" id="flowchart-B-1" class="node default default flowchart-label"><polygon style="" transform="translate(-114.0546875,114.0546875)" class="label-container" points="114.0546875,0 228.109375,-114.0546875 114.0546875,-228.109375 0,-114.0546875"/><g transform="translate(-89.5546875, -9.5)" style="" class="label"><rect/><foreignObject height="19" width="179.109375"><div style="display: inline-block; white-space: nowrap;" xmlns="http://www.w3.org/1999/xhtml"><span class="nodeLabel">Have cached valid creds?</span></div></foreignObject></g></g><g transform="translate(534.6796875, 407.609375)" data-id="C" data-node="true" id="flowchart-C-3" class="node default default flowchart-label"><rect height="53" width="217.71875" y="-26.5" x="-108.859375" ry="0" rx="0" style="" class="basic label-container"/><g transform="translate(-101.359375, -19)" style="" class="label"><rect/><foreignObject height="38" width="202.71875"><div style="display: inline-block; white-space: nowrap;" xmlns="http://www.w3.org/1999/xhtml"><span class="nodeLabel">Call /api/bootstrap?imei=...<br />header: x-api-key</span></div></foreignObject></g></g><g transform="translate(237.28125, 529.609375)" data-id="D" data-node="true" id="flowchart-D-5" class="node default default flowchart-label"><rect height="34" width="250.984375" y="-17" x="-125.4921875" ry="0" rx="0" style="" class="basic label-container"/><g transform="translate(-117.9921875, -9.5)" style="" class="label"><rect/><foreignObject height="19" width="235.984375"><div style="display: inline-block; white-space: nowrap;" xmlns="http://www.w3.org/1999/xhtml"><span class="nodeLabel">Use cached primary broker creds</span></div></foreignObject></g></g><g transform="translate(534.6796875, 529.609375)" data-id="E" data-node="true" id="flowchart-E-7" class="node default default flowchart-label"><rect height="91" width="243.8125" y="-45.5" x="-121.90625" ry="0" rx="0" style="" class="basic label-container"/><g transform="translate(-114.40625, -38)" style="" class="label"><rect/><foreignObject height="76" width="228.8125"><div style="display: inline-block; white-space: nowrap;" xmlns="http://www.w3.org/1999/xhtml"><span class="nodeLabel">Read primary_broker<br />username/password/client_id<br />publish_topics/subscribe_topics<br />endpoints list</span></div></foreignObject></g></g><g transform="translate(385.98046875, 723.9296875)" data-id="F" data-node="true" id="flowchart-F-9" class="node default default flowchart-label"><polygon style="" transform="translate(-98.8203125,98.8203125)" class="label-container" points="98.8203125,0 197.640625,-98.8203125 98.8203125,-197.640625 0,-98.8203125"/><g transform="translate(-74.3203125, -9.5)" style="" class="label"><rect/><foreignObject height="19" width="148.640625"><div style="display: inline-block; white-space: nowrap;" xmlns="http://www.w3.org/1999/xhtml"><span class="nodeLabel">Pick broker endpoint</span></div></foreignObject></g></g><g transform="translate(481.0625, 908.75)" data-id="G" data-node="true" id="flowchart-G-11" class="node default default flowchart-label"><rect height="34" width="144.15625" y="-17" x="-72.078125" ry="0" rx="0" style="" class="basic label-container"/><g transform="translate(-64.578125, -9.5)" style="" class="label"><rect/><foreignObject height="19" width="129.15625"><div style="display: inline-block; white-space: nowrap;" xmlns="http://www.w3.org/1999/xhtml"><span class="nodeLabel">MQTTS HOST:8883</span></div></foreignObject></g></g><g transform="translate(208.578125, 908.75)" data-id="H" data-node="true" id="flowchart-H-13" class="node default default flowchart-label"><rect height="34" width="136.171875" y="-17" x="-68.0859375" ry="0" rx="0" style="" class="basic label-container"/><g transform="translate(-60.5859375, -9.5)" style="" class="label"><rect/><foreignObject height="19" width="121.171875"><div style="display: inline-block; white-space: nowrap;" xmlns="http://www.w3.org/1999/xhtml"><span class="nodeLabel">MQTT HOST:1884</span></div></foreignObject></g></g><g transform="translate(385.98046875, 1002.25)" data-id="I" data-node="true" id="flowchart-I-17" class="node default default flowchart-label"><rect height="53" width="222" y="-26.5" x="-111" ry="0" rx="0" style="" class="basic label-container"/><g transform="translate(-103.5, -19)" style="" class="label"><rect/><foreignObject height="38" width="207"><div style="display: inline-block; white-space: nowrap;" xmlns="http://www.w3.org/1999/xhtml"><span class="nodeLabel">MQTT CONNECT + SUBSCRIBE<br />IMEI/ondemand</span></div></foreignObject></g></g><g transform="translate(385.98046875, 1105.25)" data-id="J" data-node="true" id="flowchart-J-21" class="node default default flowchart-label"><rect height="53" width="267.765625" y="-26.5" x="-133.8828125" ry="0" rx="0" style="" class="basic label-container"/><g transform="translate(-126.3828125, -19)" style="" class="label"><rect/><foreignObject height="38" width="252.765625"><div style="display: inline-block; white-space: nowrap;" xmlns="http://www.w3.org/1999/xhtml"><span class="nodeLabel">Publish telemetry<br />IMEI/heartbeat (+ pump/data/daq)</span></div></foreignObject></g></g><g transform="translate(385.98046875, 1309.640625)" data-id="K" data-node="true" id="flowchart-K-23" class="node default default flowchart-label"><polygon style="" transform="translate(-127.890625,127.890625)" class="label-container" points="127.890625,0 255.78125,-127.890625 127.890625,-255.78125 0,-127.890625"/><g transform="translate(-103.390625, -9.5)" style="" class="label"><rect/><foreignObject height="19" width="206.78125"><div style="display: inline-block; white-space: nowrap;" xmlns="http://www.w3.org/1999/xhtml"><span class="nodeLabel">MQTT disconnect / auth fail?</span></div></foreignObject></g></g><g transform="translate(88.2578125, 1533.03125)" data-id="L" data-node="true" id="flowchart-L-25" class="node default default flowchart-label"><rect height="53" width="176.515625" y="-26.5" x="-88.2578125" ry="0" rx="0" style="" class="basic label-container"/><g transform="translate(-80.7578125, -19)" style="" class="label"><rect/><foreignObject height="38" width="161.515625"><div style="display: inline-block; white-space: nowrap;" xmlns="http://www.w3.org/1999/xhtml"><span class="nodeLabel">Backoff + re-bootstrap<br />retry</span></div></foreignObject></g></g><g transform="translate(406.34375, 1533.03125)" data-id="M" data-node="true" id="flowchart-M-27" class="node default default flowchart-label"><rect height="34" width="104.09375" y="-17" x="-52.046875" ry="0" rx="0" style="" class="basic label-container"/><g transform="translate(-44.546875, -9.5)" style="" class="label"><rect/><foreignObject height="19" width="89.09375"><div style="display: inline-block; white-space: nowrap;" xmlns="http://www.w3.org/1999/xhtml"><span class="nodeLabel">Steady state</span></div></foreignObject></g></g></g></g></g></svg>