<svg aria-roledescription="flowchart-v2" role="graphics-document document" viewBox="-8 -8 1938.65625 746.765625" style="max-width: 1938.66px; background-color: transparent;" xmlns:xlink="http://www.w3.org/1999/xlink" xmlns="http://www.w3.org/2000/svg" width="100%" id="my-svg"><style>#my-svg{font-family:"trebuchet ms",verdana,arial,sans-serif;font-size:16px;fill:#000000;}#my-svg .error-icon{fill:#552222;}#my-svg .error-text{fill:#552222;stroke:#552222;}#my-svg .edge-thickness-normal{stroke-width:2px;}#my-svg .edge-thickness-thick{stroke-width:3.5px;}#my-svg .edge-pattern-solid{stroke-dasharray:0;}#my-svg .edge-pattern-dashed{stroke-dasharray:3;}#my-svg .edge-pattern-dotted{stroke-dasharray:2;}#my-svg .marker{fill:#000000;stroke:#000000;}#my-svg .marker.cross{stroke:#000000;}#my-svg svg{font-family:"trebuchet ms",verdana,arial,sans-serif;font-size:16px;}#my-svg .label{font-family:"trebuchet ms",verdana,arial,sans-serif;color:#000000;}#my-svg .cluster-label text{fill:#333;}#my-svg .cluster-label span,#my-svg p{color:#333;}#my-svg .label text,#my-svg span,#my-svg p{fill:#000000;color:#000000;}#my-svg .node rect,#my-svg .node circle,#my-svg .node ellipse,#my-svg .node polygon,#my-svg .node path{fill:#cde498;stroke:#13540c;stroke-width:1px;}#my-svg .flowchart-label text{text-anchor:middle;}#my-svg .node .katex path{fill:#000;stroke:#000;stroke-width:1px;}#my-svg .node .label{text-align:center;}#my-svg .node.clickable{cursor:pointer;}#my-svg .arrowheadPath{fill:green;}#my-svg .edgePath .path{stroke:#000000;stroke-width:2.0px;}#my-svg .flowchart-link{stroke:#000000;fill:none;}#my-svg .edgeLabel{background-color:#e8e8e8;text-align:center;}#my-svg .edgeLabel rect{opacity:0.5;background-color:#e8e8e8;fill:#e8e8e8;}#my-svg .labelBkg{background-color:rgba(232, 232, 232, 0.5);}#my-svg .cluster rect{fill:#cdffb2;stroke:#6eaa49;stroke-width:1px;}#my-svg .cluster text{fill:#333;}#my-svg .cluster span,#my-svg p{color:#333;}#my-svg div.mermaidTooltip{position:absolute;text-align:center;max-width:200px;padding:2px;font-family:"trebuchet ms",verdana,arial,sans-serif;font-size:12px;background:hsl(78.1578947368, 58.4615384615%, 84.5098039216%);border:1px solid #6eaa49;border-radius:2px;pointer-events:none;z-index:100;}#my-svg .flowchartTitleText{text-anchor:middle;font-size:18px;fill:#000000;}#my-svg :root{--mermaid-font-family:"trebuchet ms",verdana,arial,sans-serif;}</style><g><marker orient="auto" markerHeight="12" markerWidth="12" markerUnits="userSpaceOnUse" refY="5" refX="6" viewBox="0 0 10 10" class="marker flowchart" id="my-svg_flowchart-pointEnd"><path style="stroke-width: 1; stroke-dasharray: 1, 0;" class="arrowMarkerPath" d="M 0 0 L 10 5 L 0 10 z"/></marker><marker orient="auto" markerHeight="12" markerWidth="12" markerUnits="userSpaceOnUse" refY="5" refX="4.5" viewBox="0 0 10 10" class="marker flowchart" id="my-svg_flowchart-pointStart"><path style="stroke-width: 1; stroke-dasharray: 1, 0;" class="arrowMarkerPath" d="M 0 5 L 10 10 L 10 0 z"/></marker><marker orient="auto" markerHeight="11" markerWidth="11" markerUnits="userSpaceOnUse" refY="5" refX="11" viewBox="0 0 10 10" class="marker flowchart" id="my-svg_flowchart-circleEnd"><circle style="stroke-width: 1; stroke-dasharray: 1, 0;" class="arrowMarkerPath" r="5" cy="5" cx="5"/></marker><marker orient="auto" markerHeight="11" markerWidth="11" markerUnits="userSpaceOnUse" refY="5" refX="-1" viewBox="0 0 10 10" class="marker flowchart" id="my-svg_flowchart-circleStart"><circle style="stroke-width: 1; stroke-dasharray: 1, 0;" class="arrowMarkerPath" r="5" cy="5" cx="5"/></marker><marker orient="auto" markerHeight="11" markerWidth="11" markerUnits="userSpaceOnUse" refY="5.2" refX="12" viewBox="0 0 11 11" class="marker cross flowchart" id="my-svg_flowchart-crossEnd"><path style="stroke-width: 2; stroke-dasharray: 1, 0;" class="arrowMarkerPath" d="M 1,1 l 9,9 M 10,1 l -9,9"/></marker><marker orient="auto" markerHeight="11" markerWidth="11" markerUnits="userSpaceOnUse" refY="5.2" refX="-1" viewBox="0 0 11 11" class="marker cross flowchart" id="my-svg_flowchart-crossStart"><path style="stroke-width: 2; stroke-dasharray: 1, 0;" class="arrowMarkerPath" d="M 1,1 l 9,9 M 10,1 l -9,9"/></marker><g class="root"><g class="clusters"/><g class="edgePaths"><path marker-end="url(#my-svg_flowchart-pointEnd)" style="fill:none;" class="edge-thickness-normal edge-pattern-solid flowchart-link LS-A LE-B" id="L-A-B-0" d="M936.055,34L936.055,38.167C936.055,42.333,936.055,50.667,936.055,58.117C936.055,65.567,936.055,72.133,936.055,75.417L936.055,78.7"/><path marker-end="url(#my-svg_flowchart-pointEnd)" style="fill:none;" class="edge-thickness-normal edge-pattern-solid flowchart-link LS-B LE-C" id="L-B-C-0" d="M820.977,107.147L709.102,113.122C597.227,119.098,373.477,131.049,261.602,141.891C149.727,152.733,149.727,162.467,149.727,167.333L149.727,172.2"/><path marker-end="url(#my-svg_flowchart-pointEnd)" style="fill:none;" class="edge-thickness-normal edge-pattern-solid flowchart-link LS-B LE-D" id="L-B-D-0" d="M820.977,110.953L759.217,116.294C697.458,121.635,573.94,132.318,512.181,142.525C450.422,152.733,450.422,162.467,450.422,167.333L450.422,172.2"/><path marker-end="url(#my-svg_flowchart-pointEnd)" style="fill:none;" class="edge-thickness-normal edge-pattern-solid flowchart-link LS-B LE-E" id="L-B-E-0" d="M864.722,118L847.238,122.167C829.755,126.333,794.787,134.667,777.304,142.117C759.82,149.567,759.82,156.133,759.82,159.417L759.82,162.7"/><path marker-end="url(#my-svg_flowchart-pointEnd)" style="fill:none;" class="edge-thickness-normal edge-pattern-solid flowchart-link LS-B LE-F" id="L-B-F-0" d="M1007.388,118L1024.871,122.167C1042.355,126.333,1077.322,134.667,1094.805,143.7C1112.289,152.733,1112.289,162.467,1112.289,167.333L1112.289,172.2"/><path marker-end="url(#my-svg_flowchart-pointEnd)" style="fill:none;" class="edge-thickness-normal edge-pattern-solid flowchart-link LS-B LE-G" id="L-B-G-0" d="M1051.133,110.622L1115.673,116.018C1180.214,121.415,1309.294,132.207,1373.835,142.47C1438.375,152.733,1438.375,162.467,1438.375,167.333L1438.375,172.2"/><path marker-end="url(#my-svg_flowchart-pointEnd)" style="fill:none;" class="edge-thickness-normal edge-pattern-solid flowchart-link LS-B LE-H" id="L-B-H-0" d="M1051.133,106.785L1171.201,112.821C1291.268,118.857,1531.404,130.928,1651.471,141.831C1771.539,152.733,1771.539,162.467,1771.539,167.333L1771.539,172.2"/><path marker-end="url(#my-svg_flowchart-pointEnd)" style="fill:none;" class="edge-thickness-normal edge-pattern-solid flowchart-link LS-C LE-I" id="L-C-I-0" d="M149.727,211.5L149.727,217.25C149.727,223,149.727,234.5,262.298,247.623C374.87,260.746,600.013,275.491,712.585,282.864L825.157,290.237"/><path marker-end="url(#my-svg_flowchart-pointEnd)" style="fill:none;" class="edge-thickness-normal edge-pattern-solid flowchart-link LS-D LE-I" id="L-D-I-0" d="M450.422,211.5L450.422,217.25C450.422,223,450.422,234.5,512.881,246.874C575.34,259.247,700.257,272.494,762.716,279.118L825.175,285.742"/><path marker-end="url(#my-svg_flowchart-pointEnd)" style="fill:none;" class="edge-thickness-normal edge-pattern-solid flowchart-link LS-E LE-I" id="L-E-I-0" d="M759.82,221L759.82,225.167C759.82,229.333,759.82,237.667,773.231,245.752C786.641,253.838,813.463,261.676,826.873,265.594L840.284,269.513"/><path marker-end="url(#my-svg_flowchart-pointEnd)" style="fill:none;" class="edge-thickness-normal edge-pattern-solid flowchart-link LS-F LE-I" id="L-F-I-0" d="M1112.289,211.5L1112.289,217.25C1112.289,223,1112.289,234.5,1098.878,244.169C1085.468,253.838,1058.647,261.676,1045.236,265.594L1031.826,269.513"/><path marker-end="url(#my-svg_flowchart-pointEnd)" style="fill:none;" class="edge-thickness-normal edge-pattern-solid flowchart-link LS-G LE-I" id="L-G-I-0" d="M1438.375,211.5L1438.375,217.25C1438.375,223,1438.375,234.5,1373.135,246.939C1307.895,259.377,1177.416,272.755,1112.176,279.443L1046.936,286.132"/><path marker-end="url(#my-svg_flowchart-pointEnd)" style="fill:none;" class="edge-thickness-normal edge-pattern-solid flowchart-link LS-H LE-I" id="L-H-I-0" d="M1771.539,211.5L1771.539,217.25C1771.539,223,1771.539,234.5,1650.775,247.694C1530.011,260.888,1288.482,275.776,1167.718,283.22L1046.954,290.664"/><path marker-end="url(#my-svg_flowchart-pointEnd)" style="fill:none;" class="edge-thickness-normal edge-pattern-solid flowchart-link LS-I LE-J" id="L-I-J-0" d="M936.055,324L936.055,328.167C936.055,332.333,936.055,340.667,936.121,348.2C936.187,355.734,936.319,362.467,936.385,365.834L936.451,369.201"/><path marker-end="url(#my-svg_flowchart-pointEnd)" style="fill:none;" class="edge-thickness-normal edge-pattern-solid flowchart-link LS-J LE-K" id="L-J-K-0" d="M889.778,562.489L880.721,575.952C871.663,589.415,853.549,616.34,844.491,634.67C835.434,652.999,835.434,662.732,835.434,667.599L835.434,672.466"/><path marker-end="url(#my-svg_flowchart-pointEnd)" style="fill:none;" class="edge-thickness-normal edge-pattern-solid flowchart-link LS-J LE-L" id="L-J-L-0" d="M983.331,562.489L992.222,575.952C1001.113,589.415,1018.894,616.34,1027.785,634.67C1036.676,652.999,1036.676,662.732,1036.676,667.599L1036.676,672.466"/></g><g class="edgeLabels"><g class="edgeLabel"><g transform="translate(0, 0)" class="label"><foreignObject height="0" width="0"><div style="display: inline-block; white-space: nowrap;" xmlns="http://www.w3.org/1999/xhtml"><span class="edgeLabel"></span></div></foreignObject></g></g><g class="edgeLabel"><g transform="translate(0, 0)" class="label"><foreignObject height="0" width="0"><div style="display: inline-block; white-space: nowrap;" xmlns="http://www.w3.org/1999/xhtml"><span class="edgeLabel"></span></div></foreignObject></g></g><g class="edgeLabel"><g transform="translate(0, 0)" class="label"><foreignObject height="0" width="0"><div style="display: inline-block; white-space: nowrap;" xmlns="http://www.w3.org/1999/xhtml"><span class="edgeLabel"></span></div></foreignObject></g></g><g class="edgeLabel"><g transform="translate(0, 0)" class="label"><foreignObject height="0" width="0"><div style="display: inline-block; white-space: nowrap;" xmlns="http://www.w3.org/1999/xhtml"><span class="edgeLabel"></span></div></foreignObject></g></g><g class="edgeLabel"><g transform="translate(0, 0)" class="label"><foreignObject height="0" width="0"><div style="display: inline-block; white-space: nowrap;" xmlns="http://www.w3.org/1999/xhtml"><span class="edgeLabel"></span></div></foreignObject></g></g><g class="edgeLabel"><g transform="translate(0, 0)" class="label"><foreignObject height="0" width="0"><div style="display: inline-block; white-space: nowrap;" xmlns="http://www.w3.org/1999/xhtml"><span class="edgeLabel"></span></div></foreignObject></g></g><g class="edgeLabel"><g transform="translate(0, 0)" class="label"><foreignObject height="0" width="0"><div style="display: inline-block; white-space: nowrap;" xmlns="http://www.w3.org/1999/xhtml"><span class="edgeLabel"></span></div></foreignObject></g></g><g class="edgeLabel"><g transform="translate(0, 0)" class="label"><foreignObject height="0" width="0"><div style="display: inline-block; white-space: nowrap;" xmlns="http://www.w3.org/1999/xhtml"><span class="edgeLabel"></span></div></foreignObject></g></g><g class="edgeLabel"><g transform="translate(0, 0)" class="label"><foreignObject height="0" width="0"><div style="display: inline-block; white-space: nowrap;" xmlns="http://www.w3.org/1999/xhtml"><span class="edgeLabel"></span></div></foreignObject></g></g><g class="edgeLabel"><g transform="translate(0, 0)" class="label"><foreignObject height="0" width="0"><div style="display: inline-block; white-space: nowrap;" xmlns="http://www.w3.org/1999/xhtml"><span class="edgeLabel"></span></div></foreignObject></g></g><g class="edgeLabel"><g transform="translate(0, 0)" class="label"><foreignObject height="0" width="0"><div style="display: inline-block; white-space: nowrap;" xmlns="http://www.w3.org/1999/xhtml"><span class="edgeLabel"></span></div></foreignObject></g></g><g class="edgeLabel"><g transform="translate(0, 0)" class="label"><foreignObject height="0" width="0"><div style="display: inline-block; white-space: nowrap;" xmlns="http://www.w3.org/1999/xhtml"><span class="edgeLabel"></span></div></foreignObject></g></g><g class="edgeLabel"><g transform="translate(0, 0)" class="label"><foreignObject height="0" width="0"><div style="display: inline-block; white-space: nowrap;" xmlns="http://www.w3.org/1999/xhtml"><span class="edgeLabel"></span></div></foreignObject></g></g><g class="edgeLabel"><g transform="translate(0, 0)" class="label"><foreignObject height="0" width="0"><div style="display: inline-block; white-space: nowrap;" xmlns="http://www.w3.org/1999/xhtml"><span class="edgeLabel"></span></div></foreignObject></g></g><g transform="translate(835.43359375, 643.265625)" class="edgeLabel"><g transform="translate(-11.328125, -9.5)" class="label"><foreignObject height="19" width="22.65625"><div style="display: inline-block; white-space: nowrap;" xmlns="http://www.w3.org/1999/xhtml"><span class="edgeLabel">Yes</span></div></foreignObject></g></g><g transform="translate(1036.67578125, 643.265625)" class="edgeLabel"><g transform="translate(-9.3984375, -9.5)" class="label"><foreignObject height="19" width="18.796875"><div style="display: inline-block; white-space: nowrap;" xmlns="http://www.w3.org/1999/xhtml"><span class="edgeLabel">No</span></div></foreignObject></g></g></g><g class="nodes"><g transform="translate(936.0546875, 17)" data-id="A" data-node="true" id="flowchart-A-0" class="node default default flowchart-label"><rect height="34" width="297.84375" y="-17" x="-148.921875" ry="0" rx="0" style="" class="basic label-container"/><g transform="translate(-141.421875, -9.5)" style="" class="label"><rect/><foreignObject height="19" width="282.84375"><div style="display: inline-block; white-space: nowrap;" xmlns="http://www.w3.org/1999/xhtml"><span class="nodeLabel">Gateway receives child-node telemetry</span></div></foreignObject></g></g><g transform="translate(936.0546875, 101)" data-id="B" data-node="true" id="flowchart-B-1" class="node default default flowchart-label"><rect height="34" width="230.15625" y="-17" x="-115.078125" ry="0" rx="0" style="" class="basic label-container"/><g transform="translate(-107.578125, -9.5)" style="" class="label"><rect/><foreignObject height="19" width="215.15625"><div style="display: inline-block; white-space: nowrap;" xmlns="http://www.w3.org/1999/xhtml"><span class="nodeLabel">Repackage forwarded payload</span></div></foreignObject></g></g><g transform="translate(149.7265625, 194.5)" data-id="C" data-node="true" id="flowchart-C-3" class="node default default flowchart-label"><rect height="34" width="299.453125" y="-17" x="-149.7265625" ry="0" rx="0" style="" class="basic label-container"/><g transform="translate(-142.2265625, -9.5)" style="" class="label"><rect/><foreignObject height="19" width="284.453125"><div style="display: inline-block; white-space: nowrap;" xmlns="http://www.w3.org/1999/xhtml"><span class="nodeLabel">Top-level: sensor keys + envelope fields</span></div></foreignObject></g></g><g transform="translate(450.421875, 194.5)" data-id="D" data-node="true" id="flowchart-D-5" class="node default default flowchart-label"><rect height="34" width="201.9375" y="-17" x="-100.96875" ry="0" rx="0" style="" class="basic label-container"/><g transform="translate(-93.46875, -9.5)" style="" class="label"><rect/><foreignObject height="19" width="186.9375"><div style="display: inline-block; white-space: nowrap;" xmlns="http://www.w3.org/1999/xhtml"><span class="nodeLabel">metadata.forwarded=true</span></div></foreignObject></g></g><g transform="translate(759.8203125, 194.5)" data-id="E" data-node="true" id="flowchart-E-7" class="node default default flowchart-label"><rect height="53" width="316.859375" y="-26.5" x="-158.4296875" ry="0" rx="0" style="" class="basic label-container"/><g transform="translate(-150.9296875, -19)" style="" class="label"><rect/><foreignObject height="38" width="301.859375"><div style="display: inline-block; white-space: nowrap;" xmlns="http://www.w3.org/1999/xhtml"><span class="nodeLabel">metadata.origin_node_id=CHILD_NODE_ID<br />or metadata.origin_imei=CHILD_IMEI</span></div></foreignObject></g></g><g transform="translate(1112.2890625, 194.5)" data-id="F" data-node="true" id="flowchart-F-9" class="node default default flowchart-label"><rect height="34" width="288.078125" y="-17" x="-144.0390625" ry="0" rx="0" style="" class="basic label-container"/><g transform="translate(-136.5390625, -9.5)" style="" class="label"><rect/><foreignObject height="19" width="273.078125"><div style="display: inline-block; white-space: nowrap;" xmlns="http://www.w3.org/1999/xhtml"><span class="nodeLabel">metadata.route.path=array of hop IDs</span></div></foreignObject></g></g><g transform="translate(1438.375, 194.5)" data-id="G" data-node="true" id="flowchart-G-11" class="node default default flowchart-label"><rect height="34" width="264.09375" y="-17" x="-132.046875" ry="0" rx="0" style="" class="basic label-container"/><g transform="translate(-124.546875, -9.5)" style="" class="label"><rect/><foreignObject height="19" width="249.09375"><div style="display: inline-block; white-space: nowrap;" xmlns="http://www.w3.org/1999/xhtml"><span class="nodeLabel">metadata.route.hops=HOP_COUNT</span></div></foreignObject></g></g><g transform="translate(1771.5390625, 194.5)" data-id="H" data-node="true" id="flowchart-H-13" class="node default default flowchart-label"><rect height="34" width="302.234375" y="-17" x="-151.1171875" ry="0" rx="0" style="" class="basic label-container"/><g transform="translate(-143.6171875, -9.5)" style="" class="label"><rect/><foreignObject height="19" width="287.234375"><div style="display: inline-block; white-space: nowrap;" xmlns="http://www.w3.org/1999/xhtml"><span class="nodeLabel">metadata.route.ingress=INGRESS_LABEL</span></div></foreignObject></g></g><g transform="translate(936.0546875, 297.5)" data-id="I" data-node="true" id="flowchart-I-15" class="node default default flowchart-label"><rect height="53" width="211.21875" y="-26.5" x="-105.609375" ry="0" rx="0" style="" class="basic label-container"/><g transform="translate(-98.109375, -19)" style="" class="label"><rect/><foreignObject height="38" width="196.21875"><div style="display: inline-block; white-space: nowrap;" xmlns="http://www.w3.org/1999/xhtml"><span class="nodeLabel">Publish as gateway identity<br />GATEWAY_IMEI/data</span></div></foreignObject></g></g><g transform="translate(936.0546875, 491.3828125)" data-id="J" data-node="true" id="flowchart-J-27" class="node default default flowchart-label"><polygon style="" transform="translate(-117.3828125,117.3828125)" class="label-container" points="117.3828125,0 234.765625,-117.3828125 117.3828125,-234.765625 0,-117.3828125"/><g transform="translate(-92.8828125, -9.5)" style="" class="label"><rect/><foreignObject height="19" width="185.765625"><div style="display: inline-block; white-space: nowrap;" xmlns="http://www.w3.org/1999/xhtml"><span class="nodeLabel">Server can recover origin?</span></div></foreignObject></g></g><g transform="translate(835.43359375, 704.265625)" data-id="K" data-node="true" id="flowchart-K-29" class="node default default flowchart-label"><rect height="53" width="167.28125" y="-26.5" x="-83.640625" ry="0" rx="0" style="" class="basic label-container"/><g transform="translate(-76.140625, -19)" style="" class="label"><rect/><foreignObject height="38" width="152.28125"><div style="display: inline-block; white-space: nowrap;" xmlns="http://www.w3.org/1999/xhtml"><span class="nodeLabel">Ingest as forwarded<br />link to origin identity</span></div></foreignObject></g></g><g transform="translate(1036.67578125, 704.265625)" data-id="L" data-node="true" id="flowchart-L-31" class="node default default flowchart-label"><rect height="53" width="135.203125" y="-26.5" x="-67.6015625" ry="0" rx="0" style="" class="basic label-container"/><g transform="translate(-60.1015625, -19)" style="" class="label"><rect/><foreignObject height="38" width="120.203125"><div style="display: inline-block; white-space: nowrap;" xmlns="http://www.w3.org/1999/xhtml"><span class="nodeLabel">Mark suspicious<br />store diagnostics</span></div></foreignObject></g></g></g></g></g></svg>